<?xml version="1.0" encoding="utf-8"?><svg xmlns="http://www.w3.org/2000/svg" xmlns:xlink="http://www.w3.org/1999/xlink" width="1967" height="721" preserveAspectRatio="xMidYMid" viewBox="0 0 1967 721" style="z-index:1;margin-right:-2px;display:block;background-repeat-y:initial;background-repeat-x:initial;animation-play-state:paused" ><g transform="" style="animation-play-state:paused" ><linearGradient id="lg-0.40757923941798135" x1="0" x2="1" y1="0" y2="0" style="animation-play-state:paused" ><stop stop-color="#005aea" offset="0" style="animation-play-state:paused" ></stop>

  
<stop stop-color="#42a3ff" offset="1" style="animation-play-state:paused" ></stop></linearGradient>
<path fill="url(#lg-0.40757923941798135)" opacity="0.4" d="M 0 0 L 0 704.505 Q 196.7 577.404 393.4 559.279 T 786.8 548.568 T 1180.2 383.901 T 1573.6 412.751 T 1967 241.587 L 1967 0 Z" style="opacity:0.4;animation-play-state:paused" ></path>
<path fill="url(#lg-0.40757923941798135)" opacity="0.4" d="M 0 0 L 0 630.207 Q 196.7 577.753 393.4 556.804 T 786.8 494.992 T 1180.2 488.572 T 1573.6 321.546 T 1967 271.836 L 1967 0 Z" style="opacity:0.4;animation-play-state:paused" ></path>
<path fill="url(#lg-0.40757923941798135)" opacity="0.4" d="M 0 0 L 0 650.346 Q 196.7 618.47 393.4 581.786 T 786.8 515.401 T 1180.2 474.779 T 1573.6 426.803 T 1967 330.176 L 1967 0 Z" style="opacity:0.4;animation-play-state:paused" ></path>
<path fill="url(#lg-0.40757923941798135)" opacity="0.4" d="M 0 0 L 0 632.168 Q 196.7 599.629 393.4 559.465 T 786.8 487.78 T 1180.2 453.102 T 1573.6 408.62 T 1967 252.585 L 1967 0 Z" style="opacity:0.4;animation-play-state:paused" ></path></g></svg>